<svg id="svg" xmlns="http://www.w3.org/2000/svg" xmlns:xlink="http://www.w3.org/1999/xlink" width="400" height="400" viewBox="0, 0, 400,400"><g id="svgg"><path id="path0" d="M273.047 1.879 C 267.221 4.659,85.033 187.209,83.506 191.797 C 81.829 196.835,82.167 205.203,84.232 209.766 C 86.991 215.858,266.453 395.144,272.656 398.004 C 283.789 403.136,291.524 400.492,304.852 386.997 C 315.500 376.216,317.417 372.836,317.417 364.844 C 317.417 354.860,321.684 359.638,238.061 275.977 L 162.120 200.000 238.390 123.633 C 322.925 38.990,317.646 44.945,317.515 34.375 C 317.419 26.559,315.495 23.177,305.296 12.896 C 292.308 -0.197,283.619 -3.166,273.047 1.879 " stroke="none" fill="#000000" fill-rule="evenodd"></path></g></svg>