<svg id="svg" xmlns="http://www.w3.org/2000/svg" xmlns:xlink="http://www.w3.org/1999/xlink" width="400" height="400" viewBox="0, 0, 400,400"><g id="svgg"><path id="path0" d="M181.250 1.120 C 81.578 18.942,49.100 147.306,129.055 207.409 L 133.576 210.808 127.921 212.918 C 54.781 240.207,0.266 316.703,0.024 392.383 L 0.000 400.000 15.899 400.000 L 31.797 400.000 32.270 389.648 C 37.033 285.379,140.997 210.471,243.423 237.509 C 312.499 255.743,364.522 319.415,367.730 389.648 L 368.203 400.000 384.101 400.000 L 400.000 400.000 399.976 392.383 C 399.734 316.703,345.219 240.207,272.079 212.918 L 266.424 210.808 270.988 207.377 C 330.749 162.454,330.405 69.022,270.313 23.483 C 245.514 4.691,210.477 -4.107,181.250 1.120 M215.039 33.141 C 280.533 45.672,306.386 125.083,260.650 173.241 C 208.719 227.924,116.406 191.051,116.406 115.625 C 116.406 63.471,164.286 23.431,215.039 33.141 " stroke="none" fill="#000000" fill-rule="evenodd"></path></g></svg>